<?xml version="1.0" encoding="utf-8"?>
<!-- Generator: Adobe Illustrator 24.1.3, SVG Export Plug-In . SVG Version: 6.00 Build 0)  -->
<svg version="1.1" id="레이어_1" xmlns="http://www.w3.org/2000/svg" xmlns:xlink="http://www.w3.org/1999/xlink" x="0px"
	 y="0px" viewBox="0 0 84.3 21" style="enable-background:new 0 0 84.3 21;" xml:space="preserve">
<style type="text/css">
	.st0{fill:#FFFFFF;}
</style>
<g>
	<path class="st0" d="M66.7,10.3c-1,0.4-1.7,1.4-1.7,2.5v5.3c0,0.5,0.1,1,0.2,1.6c0.2,0.5,0.3,0.8,0.5,1V21h-4.1
		c-0.2,0-0.4-0.1-0.5-0.2c-0.1-0.1-0.2-0.3-0.2-0.5v-7.5c0-0.9-0.1-1.5-0.2-1.9c-0.3-0.9-1-0.6-1.4-0.3c-0.3,0.2-0.8,0.7-1.1,1.8
		c-0.2,0.7-0.3,1.4-0.3,2.1l0,3.9c0,1.2,0.3,2,0.7,2.5l0,0.2h-4.1c-0.2,0-0.4-0.1-0.5-0.2c-0.1-0.1-0.2-0.3-0.2-0.5v-6.9
		c0,0,0-0.1,0-0.1c0,0,0,0,0,0c0-0.2,0-0.3-0.1-0.5c0-0.1-0.1-0.2-0.1-0.4c-0.1-0.3-0.3-0.6-0.5-0.8c-0.2-0.2-0.5-0.3-0.8-0.4
		c-0.1,0-0.1-0.1,0-0.1l4.7-1.9c0.2-0.1,0.4-0.1,0.6,0c0.2,0.1,0.3,0.3,0.3,0.6l0,2c0.6-1.8,1.9-2.7,4-2.7c0.6,0,1.3,0.2,1.9,0.5
		c0.6,0.4,1,0.9,1.2,1.6c0.9-1.4,2.2-2.1,4.1-2.1c0.8,0,1.5,0.2,2.2,0.7c0.7,0.5,1,1.3,1,2.5l0,5.8c0,0.5,0.1,1,0.2,1.6
		c0.2,0.5,0.3,0.8,0.5,1V21h-4.1c-0.2,0-0.4-0.1-0.5-0.2c-0.1-0.1-0.2-0.3-0.2-0.5V13c0-0.8-0.1-1.4-0.2-1.8
		C67.7,10.2,67.2,10.2,66.7,10.3z"/>
	<path class="st0" d="M6.3,11.4c0-0.8-0.1-1.3-0.3-1.6C5.9,9.5,5.6,9.3,5.3,9.3c-1.1,0-1.9,0.8-1.9,2.5c0,1.4,0.4,2.6,1,3.8
		c0.7,1.2,1.5,2.1,2.4,2.7c0.1,0.1,0.3,0.2,0.4,0.2C8,19,8.8,19.2,9.6,19.1c0.3,0,0.7-0.1,1-0.3c0.1,0,0.1,0,0.1,0c0,0,0,0,0,0
		C9.4,20.3,7.8,21,6.1,21c-1.9,0-3.5-0.8-4.8-2.3c-0.7-0.9-1.1-1.9-1.2-3c-0.2-2,0.4-3.7,1.7-5C3,9.5,4.4,8.9,6.1,8.9
		c1.3,0,2.3,0.4,3.2,1.1c0.9,0.7,1.3,1.5,1.3,2.4l0,0c0,1.2-0.9,1.8-2.1,1.8c-1.1,0-2-0.9-2.1-1.9C6.3,12.1,6.3,11.4,6.3,11.4z"/>
	<g>
		<path class="st0" d="M83.2,10.4c-0.7-0.8-1.6-1.2-2.3-1.4c-0.7-0.2-1.8-0.2-2.3-0.1c-1.2,0.2-2.2,0.8-3.1,1.7
			c-1.2,1.2-1.8,2.6-1.8,4.3c0,1.7,0.6,3.1,1.8,4.3c1.2,1.2,2.6,1.8,4.3,1.8c1.8,0,3.3-0.7,4.5-2c0-0.1,0.1-0.1,0.1-0.1
			c0,0,0-0.1,0-0.1c0,0-0.1,0-0.1,0c-1.8,0.9-3.6-0.4-3.8-0.5l0,0c-1-0.7-2.1-2.1-2.7-3.5c-0.1-0.3-0.3-0.9-0.3-0.9h2.6v0l3.7,0
			C83.9,13.6,84.5,12,83.2,10.4z M78.4,9.4c0.3-0.1,0.7,0,1,0.1c1.4,0.7,1.1,3.5,0.6,3.9h-2.7c-0.2-0.7-0.3-1.4-0.3-2
			C77,9.8,77.9,9.4,78.4,9.4z"/>
	</g>
	<g>
		<path class="st0" d="M50.4,10.4c-0.7-0.8-1.6-1.2-2.3-1.4c-0.7-0.2-1.8-0.2-2.3-0.1c-1.2,0.2-2.2,0.8-3.1,1.7
			c-1.2,1.2-1.8,2.6-1.8,4.3c0,1.7,0.6,3.1,1.8,4.3c1.2,1.2,2.6,1.8,4.3,1.8c1.8,0,3.3-0.7,4.5-2c0-0.1,0.1-0.1,0.1-0.1
			c0,0,0-0.1,0-0.1c0,0-0.1,0-0.1,0c-1.8,0.9-3.6-0.4-3.8-0.5l0,0c-1-0.7-2.1-2.1-2.7-3.5c-0.1-0.3-0.3-0.9-0.3-0.9h2.6v0l3.7,0
			C51.2,13.6,51.7,12,50.4,10.4z M45.6,9.4c0.3-0.1,0.7,0,1,0.1c1.4,0.7,1.1,3.5,0.6,3.9h-2.7c-0.2-0.7-0.3-1.4-0.3-2
			C44.2,9.8,45.1,9.4,45.6,9.4z"/>
	</g>
	<path class="st0" d="M38.4,10.4c-0.9-1-2.2-1.6-3.9-1.6c-0.8,0-1.6,0.3-2.3,0.7c-0.1,0-0.1,0-0.1-0.1V0.7c0-0.3-0.1-0.5-0.3-0.6
		c-0.2-0.1-0.4-0.1-0.6,0l-2.8,1.1l-1,0.5c0,0-2.8,1.1-2.6,3.9c0.1,1.6,1.8,3.7,2.9,6.9c0.4,1.1,0.4,2.4,0.4,2.4v0.9l0,1.9
		c0,0.4-0.1,0.7-0.3,1.1c-0.2,0.3-0.7,1-1.4,1c-0.6,0-1-0.2-1.2-0.5c-0.4-0.4-0.6-1.4-0.6-2.3V9.6c0-0.3-0.1-0.5-0.3-0.6
		c-0.2-0.1-0.4-0.1-0.6,0c0,0-4.5,1.8-4.6,1.9c0,0,0,0,0,0c0,0.1,0.1,0.1,0.1,0.1c0.3,0.1,0.5,0.2,0.7,0.4c0.7,0.6,0.7,1.6,0.7,1.8
		v3.4l0,0.2c0,0.5-0.1,1-0.3,1.4c-0.2,0.6-0.5,1-0.8,1.3c-0.7,0.6-1.3,0.5-1.7,0.2c-0.4-0.2-0.6-0.6-0.8-1c-0.2-0.5-0.3-1-0.3-1.7
		V9.6c0-0.3-0.1-0.5-0.3-0.6c-0.2-0.1-0.4-0.1-0.6,0L11,10.9c-0.1,0-0.1,0.1,0,0.2c0.3,0.1,0.5,0.2,0.7,0.4c0.6,0.6,0.7,1.4,0.7,1.7
		l0,0.1v3.7c0,1.6,0.2,2.4,1.2,3.2c0.1,0.1,0.1,0.1,0.2,0.1c0.1,0.1,0.4,0.3,0.7,0.4c0.5,0.2,1,0.4,1.5,0.4c0.3,0,0.6,0,0.9,0
		c0.7-0.1,2.3-0.4,3.3-2.1c0,0,0,0,0,0c0,0,0.1-0.2,0.2-0.3c0.2,0.7,0.6,1.3,1,1.7c0.3,0.3,1.2,0.8,2.3,0.8c1.4,0,3-0.4,4-1.7l0,1
		c0,0.4,0,0.9,0.6,0.7l2.2-0.9c0,0,0,0,0.1,0c0.6,0.3,1.2,0.5,1.7,0.7c0.5,0.1,1,0.2,1.5,0.2c1,0,2-0.2,2.9-0.6
		c0.9-0.4,1.6-1.1,2.1-2.1c0.5-1,0.7-2.2,0.7-3.7C39.8,12.8,39.3,11.5,38.4,10.4z M26.7,7.3c-0.5-1.3-0.3-2.6,0-3
		c0.2-0.3,0.5-0.6,0.9-0.5C27.9,3.7,28,4,28,4.2l0,6.5C27.8,10.2,27,8.1,26.7,7.3z M35.8,18.6c-0.2,1.3-1.1,2-2.3,1.9
		c-0.7,0-1.3-0.5-1.4-1.2C32,18.6,32,17.9,32,17.1l0-6.7c0-0.2,0.2-0.4,0.4-0.4c1.2,0,2.2,1.4,3,4.1c0.3,1.2,0.5,2.4,0.5,3.4
		C35.9,17.9,35.9,18.3,35.8,18.6z"/>
</g>
</svg>
